CSLSans-ExtraBold.ufo
<glyph name="dollar" format="2">
  <advance width="601"/>
  <unicode hex="0024"/>
  <outline>
    <contour>
      <point x="352" y="124" type="line"/>
      <point x="421" y="144"/>
      <point x="421" y="206" type="qcurve" smooth="yes"/>
      <point x="421" y="228"/>
      <point x="394" y="269"/>
      <point x="352" y="282" type="qcurve"/>
    </contour>
    <contour>
      <point x="263" y="576" type="line"/>
      <point x="190" y="559"/>
      <point x="190" y="500" type="qcurve" smooth="yes"/>
      <point x="190" y="471"/>
      <point x="225" y="439"/>
      <point x="263" y="428" type="qcurve"/>
    </contour>
    <contour>
      <point x="250" y="-82" type="line"/>
      <point x="250" y="10" type="line"/>
      <point x="113" y="23"/>
      <point x="32" y="115" type="qcurve"/>
      <point x="122" y="197" type="line"/>
      <point x="180" y="136"/>
      <point x="263" y="122" type="qcurve"/>
      <point x="263" y="302" type="line"/>
      <point x="151" y="325"/>
      <point x="52" y="423"/>
      <point x="52" y="496" type="qcurve" smooth="yes"/>
      <point x="52" y="575"/>
      <point x="153" y="674"/>
      <point x="250" y="686" type="qcurve"/>
      <point x="250" y="780" type="line"/>
      <point x="364" y="780" type="line"/>
      <point x="364" y="686" type="line"/>
      <point x="483" y="673"/>
      <point x="547" y="596" type="qcurve"/>
      <point x="456" y="514" type="line"/>
      <point x="422" y="556"/>
      <point x="352" y="574" type="qcurve"/>
      <point x="352" y="408" type="line"/>
      <point x="457" y="385"/>
      <point x="559" y="294"/>
      <point x="559" y="217" type="qcurve" smooth="yes"/>
      <point x="559" y="143"/>
      <point x="463" y="33"/>
      <point x="364" y="14" type="qcurve"/>
      <point x="364" y="-82" type="line"/>
    </contour>
  </outline>
</glyph>
<glyph name="ampersand" format="2">
  <advance width="721"/>
  <unicode hex="0026"/>
  <outline>
    <contour>
      <point x="309" y="111" type="qcurve" smooth="yes"/>
      <point x="368" y="111"/>
      <point x="410" y="139" type="qcurve"/>
      <point x="263" y="298" type="line"/>
      <point x="201" y="263"/>
      <point x="201" y="209" type="qcurve" smooth="yes"/>
      <point x="201" y="199" type="line" smooth="yes"/>
      <point x="201" y="161"/>
      <point x="255" y="111"/>
    </contour>
    <contour>
      <point x="310" y="442" type="qcurve"/>
      <point x="345" y="463"/>
      <point x="381" y="506"/>
      <point x="381" y="540" type="qcurve" smooth="yes"/>
      <point x="381" y="567"/>
      <point x="344" y="597"/>
      <point x="317" y="597" type="qcurve" smooth="yes"/>
      <point x="290" y="597"/>
      <point x="253" y="567"/>
      <point x="253" y="536" type="qcurve" smooth="yes"/>
      <point x="253" y="516"/>
      <point x="280" y="476"/>
    </contour>
    <contour>
      <point x="287" y="-12" type="qcurve" smooth="yes"/>
      <point x="172" y="-12"/>
      <point x="50" y="99"/>
      <point x="50" y="183" type="qcurve" smooth="yes"/>
      <point x="50" y="249"/>
      <point x="90" y="298" type="qcurve" smooth="yes"/>
      <point x="128" y="343"/>
      <point x="190" y="377" type="qcurve"/>
      <point x="159" y="409"/>
      <point x="112" y="495"/>
      <point x="112" y="543" type="qcurve" smooth="yes"/>
      <point x="112" y="611"/>
      <point x="225" y="710"/>
      <point x="321" y="710" type="qcurve" smooth="yes"/>
      <point x="407" y="710"/>
      <point x="522" y="627"/>
      <point x="522" y="550" type="qcurve" smooth="yes"/>
      <point x="522" y="489"/>
      <point x="481" y="441" type="qcurve"/>
      <point x="441" y="397"/>
      <point x="383" y="363" type="qcurve"/>
      <point x="491" y="246" type="line"/>
      <point x="516" y="313"/>
      <point x="520" y="385" type="qcurve"/>
      <point x="687" y="385" type="line"/>
      <point x="687" y="262" type="line"/>
      <point x="624" y="262" type="line"/>
      <point x="608" y="198"/>
      <point x="579" y="151" type="qcurve"/>
      <point x="718" y="0" type="line"/>
      <point x="539" y="0" type="line"/>
      <point x="487" y="57" type="line"/>
      <point x="455" y="29"/>
      <point x="360" y="-12"/>
    </contour>
  </outline>
</glyph>
<glyph name="comma" format="2">
  <advance width="300"/>
  <unicode hex="002C"/>
  <outline>
    <contour>
      <point x="33" y="-147" type="line"/>
      <point x="105" y="-85"/>
      <point x="131" y="-9" type="qcurve"/>
      <point x="96" y="-3"/>
      <point x="64" y="40"/>
      <point x="64" y="69" type="qcurve" smooth="yes"/>
      <point x="64" y="89" type="line" smooth="yes"/>
      <point x="64" y="124"/>
      <point x="107" y="169"/>
      <point x="152" y="169" type="qcurve" smooth="yes"/>
      <point x="197" y="169"/>
      <point x="240" y="124"/>
      <point x="240" y="89" type="qcurve" smooth="yes"/>
      <point x="240" y="69" type="line" smooth="yes"/>
      <point x="240" y="8"/>
      <point x="182" y="-109"/>
      <point x="133" y="-147" type="qcurve"/>
    </contour>
  </outline>
</glyph>
<glyph name="zero" format="2">
  <advance width="600"/>
  <unicode hex="0030"/>
  <outline>
    <contour>
      <point x="300" y="115" type="qcurve" smooth="yes"/>
      <point x="360" y="115"/>
      <point x="406" y="203"/>
      <point x="406" y="283" type="qcurve" smooth="yes"/>
      <point x="406" y="415" type="line" smooth="yes"/>
      <point x="406" y="495"/>
      <point x="360" y="583"/>
      <point x="300" y="583" type="qcurve" smooth="yes"/>
      <point x="240" y="583"/>
      <point x="194" y="495"/>
      <point x="194" y="415" type="qcurve" smooth="yes"/>
      <point x="194" y="283" type="line" smooth="yes"/>
      <point x="194" y="203"/>
      <point x="240" y="115"/>
    </contour>
    <contour>
      <point x="300" y="-12" type="qcurve" smooth="yes"/>
      <point x="163" y="-12"/>
      <point x="31" y="178"/>
      <point x="31" y="349" type="qcurve" smooth="yes"/>
      <point x="31" y="520"/>
      <point x="163" y="710"/>
      <point x="300" y="710" type="qcurve" smooth="yes"/>
      <point x="437" y="710"/>
      <point x="569" y="520"/>
      <point x="569" y="349" type="qcurve" smooth="yes"/>
      <point x="569" y="178"/>
      <point x="437" y="-12"/>
    </contour>
  </outline>
</glyph>
<glyph name="three" format="2">
  <advance width="600"/>
  <unicode hex="0033"/>
  <outline>
    <contour>
      <point x="274" y="-12" type="qcurve" smooth="yes"/>
      <point x="174" y="-12"/>
      <point x="109" y="29" type="qcurve" smooth="yes"/>
      <point x="49" y="67"/>
      <point x="16" y="122" type="qcurve"/>
      <point x="127" y="208" type="line"/>
      <point x="149" y="164"/>
      <point x="217" y="110"/>
      <point x="274" y="110" type="qcurve" smooth="yes"/>
      <point x="325" y="110"/>
      <point x="382" y="161"/>
      <point x="382" y="205" type="qcurve" smooth="yes"/>
      <point x="382" y="211" type="line" smooth="yes"/>
      <point x="382" y="254"/>
      <point x="317" y="297"/>
      <point x="260" y="297" type="qcurve" smooth="yes"/>
      <point x="197" y="297" type="line"/>
      <point x="197" y="422" type="line"/>
      <point x="262" y="422" type="line" smooth="yes"/>
      <point x="318" y="422"/>
      <point x="369" y="465"/>
      <point x="369" y="497" type="qcurve" smooth="yes"/>
      <point x="369" y="588"/>
      <point x="275" y="588" type="qcurve" smooth="yes"/>
      <point x="191" y="588"/>
      <point x="133" y="505" type="qcurve"/>
      <point x="39" y="593" type="line"/>
      <point x="78" y="646"/>
      <point x="190" y="710"/>
      <point x="280" y="710" type="qcurve" smooth="yes"/>
      <point x="393" y="710"/>
      <point x="527" y="609"/>
      <point x="527" y="525" type="qcurve" smooth="yes"/>
      <point x="527" y="459"/>
      <point x="449" y="378"/>
      <point x="394" y="368" type="qcurve"/>
      <point x="394" y="362" type="line"/>
      <point x="457" y="350"/>
      <point x="539" y="266"/>
      <point x="539" y="194" type="qcurve" smooth="yes"/>
      <point x="539" y="100"/>
      <point x="393" y="-12"/>
    </contour>
  </outline>
</glyph>
<glyph name="colon" format="2">
  <advance width="300"/>
  <unicode hex="003A"/>
  <outline>
    <contour>
      <point x="150" y="-11" type="qcurve" smooth="yes"/>
      <point x="105" y="-11"/>
      <point x="62" y="34"/>
      <point x="62" y="69" type="qcurve" smooth="yes"/>
      <point x="62" y="89" type="line" smooth="yes"/>
      <point x="62" y="124"/>
      <point x="105" y="169"/>
      <point x="150" y="169" type="qcurve" smooth="yes"/>
      <point x="195" y="169"/>
      <point x="238" y="124"/>
      <point x="238" y="89" type="qcurve" smooth="yes"/>
      <point x="238" y="69" type="line" smooth="yes"/>
      <point x="238" y="34"/>
      <point x="195" y="-11"/>
    </contour>
    <contour>
      <point x="150" y="355" type="qcurve" smooth="yes"/>
      <point x="105" y="355"/>
      <point x="62" y="400"/>
      <point x="62" y="435" type="qcurve" smooth="yes"/>
      <point x="62" y="455" type="line" smooth="yes"/>
      <point x="62" y="490"/>
      <point x="105" y="535"/>
      <point x="150" y="535" type="qcurve" smooth="yes"/>
      <point x="195" y="535"/>
      <point x="238" y="490"/>
      <point x="238" y="455" type="qcurve" smooth="yes"/>
      <point x="238" y="435" type="line" smooth="yes"/>
      <point x="238" y="400"/>
      <point x="195" y="355"/>
    </contour>
  </outline>
</glyph>
<glyph name="question" format="2">
  <advance width="500"/>
  <unicode hex="003F"/>
  <outline>
    <contour>
      <point x="230" y="-12" type="qcurve" smooth="yes"/>
      <point x="182" y="-12"/>
      <point x="141" y="32"/>
      <point x="141" y="64" type="qcurve" smooth="yes"/>
      <point x="141" y="88" type="line" smooth="yes"/>
      <point x="141" y="120"/>
      <point x="182" y="164"/>
      <point x="230" y="164" type="qcurve" smooth="yes"/>
      <point x="278" y="164"/>
      <point x="319" y="120"/>
      <point x="319" y="88" type="qcurve" smooth="yes"/>
      <point x="319" y="64" type="line" smooth="yes"/>
      <point x="319" y="32"/>
      <point x="278" y="-12"/>
    </contour>
    <contour>
      <point x="158" y="233" type="line"/>
      <point x="158" y="386" type="line"/>
      <point x="237" y="388"/>
      <point x="316" y="436"/>
      <point x="316" y="492" type="qcurve" smooth="yes"/>
      <point x="316" y="506" type="line" smooth="yes"/>
      <point x="316" y="544"/>
      <point x="271" y="584"/>
      <point x="235" y="584" type="qcurve" smooth="yes"/>
      <point x="196" y="584"/>
      <point x="145" y="536"/>
      <point x="136" y="499" type="qcurve"/>
      <point x="14" y="550" type="line"/>
      <point x="31" y="613"/>
      <point x="85" y="660" type="qcurve" smooth="yes"/>
      <point x="144" y="710"/>
      <point x="240" y="710" type="qcurve" smooth="yes"/>
      <point x="344" y="710"/>
      <point x="473" y="596"/>
      <point x="473" y="504" type="qcurve" smooth="yes"/>
      <point x="473" y="424"/>
      <point x="371" y="318"/>
      <point x="298" y="305" type="qcurve"/>
      <point x="298" y="233" type="line"/>
    </contour>
  </outline>
</glyph>
<glyph name="Ccedilla" format="2">
  <advance width="651"/>
  <unicode hex="00C7"/>
  <outline>
    <contour>
      <point x="348" y="-212" type="qcurve" smooth="yes"/>
      <point x="258" y="-212"/>
      <point x="224" y="-168" type="qcurve"/>
      <point x="270" y="-112" type="line"/>
      <point x="293" y="-141"/>
      <point x="336" y="-141" type="qcurve" smooth="yes"/>
      <point x="355" y="-141"/>
      <point x="380" y="-129"/>
      <point x="380" y="-116" type="qcurve" smooth="yes"/>
      <point x="380" y="-104"/>
      <point x="366" y="-92" type="qcurve"/>
      <point x="348" y="-80"/>
      <point x="284" y="-74" type="qcurve"/>
      <point x="298" y="-7" type="line"/>
      <point x="182" y="10"/>
      <point x="50" y="187"/>
      <point x="50" y="344" type="qcurve" smooth="yes"/>
      <point x="50" y="520"/>
      <point x="217" y="710"/>
      <point x="359" y="710" type="qcurve" smooth="yes"/>
      <point x="456" y="710"/>
      <point x="582" y="630"/>
      <point x="620" y="546" type="qcurve"/>
      <point x="489" y="478" type="line"/>
      <point x="476" y="523"/>
      <point x="416" y="575"/>
      <point x="359" y="575" type="qcurve" smooth="yes"/>
      <point x="292" y="575"/>
      <point x="211" y="488"/>
      <point x="211" y="405" type="qcurve" smooth="yes"/>
      <point x="211" y="293" type="line" smooth="yes"/>
      <point x="211" y="210"/>
      <point x="292" y="123"/>
      <point x="359" y="123" type="qcurve" smooth="yes"/>
      <point x="415" y="123"/>
      <point x="483" y="183"/>
      <point x="498" y="227" type="qcurve"/>
      <point x="622" y="155" type="line"/>
      <point x="542" y="-12"/>
      <point x="364" y="-12" type="qcurve"/>
      <point x="355" y="-55" type="line"/>
      <point x="359" y="-59" type="line"/>
      <point x="383" y="-52"/>
      <point x="407" y="-52" type="qcurve" smooth="yes"/>
      <point x="437" y="-52"/>
      <point x="480" y="-84"/>
      <point x="480" y="-121" type="qcurve" smooth="yes"/>
      <point x="480" y="-168"/>
      <point x="440" y="-192" type="qcurve" smooth="yes"/>
      <point x="406" y="-212"/>
    </contour>
  </outline>
</glyph>
<glyph name="Eacute" format="2">
  <advance width="607"/>
  <unicode hex="00C9"/>
  <outline>
    <contour>
      <point x="77" y="0" type="line"/>
      <point x="77" y="698" type="line"/>
      <point x="552" y="698" type="line"/>
      <point x="552" y="563" type="line"/>
      <point x="229" y="563" type="line"/>
      <point x="229" y="420" type="line"/>
      <point x="506" y="420" type="line"/>
      <point x="506" y="286" type="line"/>
      <point x="229" y="286" type="line"/>
      <point x="229" y="135" type="line"/>
      <point x="552" y="135" type="line"/>
      <point x="552" y="0" type="line"/>
    </contour>
    <contour>
      <point x="243" y="783" type="line"/>
      <point x="342" y="977" type="line"/>
      <point x="465" y="916" type="line"/>
      <point x="331" y="740" type="line"/>
    </contour>
  </outline>
</glyph>
<glyph name="Ecircumflex" format="2">
  <advance width="607"/>
  <unicode hex="00CA"/>
  <outline>
    <contour>
      <point x="77" y="0" type="line"/>
      <point x="77" y="698" type="line"/>
      <point x="552" y="698" type="line"/>
      <point x="552" y="563" type="line"/>
      <point x="229" y="563" type="line"/>
      <point x="229" y="420" type="line"/>
      <point x="506" y="420" type="line"/>
      <point x="506" y="286" type="line"/>
      <point x="229" y="286" type="line"/>
      <point x="229" y="135" type="line"/>
      <point x="552" y="135" type="line"/>
      <point x="552" y="0" type="line"/>
    </contour>
    <contour>
      <point x="315" y="854" type="line"/>
      <point x="194" y="739" type="line"/>
      <point x="121" y="797" type="line"/>
      <point x="253" y="956" type="line"/>
      <point x="377" y="956" type="line"/>
      <point x="509" y="797" type="line"/>
      <point x="436" y="739" type="line"/>
    </contour>
  </outline>
</glyph>
<glyph name="Odieresis" format="2">
  <advance width="714"/>
  <unicode hex="00D6"/>
  <outline>
    <contour>
      <point x="357" y="123" type="qcurve"/>
      <point x="503" y="129"/>
      <point x="503" y="297" type="qcurve" smooth="yes"/>
      <point x="503" y="401" type="line" smooth="yes"/>
      <point x="503" y="485"/>
      <point x="426" y="575"/>
      <point x="357" y="575" type="qcurve"/>
      <point x="211" y="569"/>
      <point x="211" y="401" type="qcurve" smooth="yes"/>
      <point x="211" y="297" type="line" smooth="yes"/>
      <point x="211" y="213"/>
      <point x="288" y="123"/>
    </contour>
    <contour>
      <point x="357" y="-12" type="qcurve" smooth="yes"/>
      <point x="219" y="-12"/>
      <point x="134" y="80" type="qcurve" smooth="yes"/>
      <point x="50" y="174"/>
      <point x="50" y="349" type="qcurve" smooth="yes"/>
      <point x="50" y="523"/>
      <point x="134" y="619" type="qcurve"/>
      <point x="219" y="710"/>
      <point x="357" y="710" type="qcurve" smooth="yes"/>
      <point x="495" y="710"/>
      <point x="580" y="619" type="qcurve"/>
      <point x="664" y="523"/>
      <point x="664" y="349" type="qcurve" smooth="yes"/>
      <point x="664" y="174"/>
      <point x="580" y="80" type="qcurve" smooth="yes"/>
      <point x="495" y="-12"/>
    </contour>
    <contour>
      <point x="247" y="761" type="qcurve" smooth="yes"/>
      <point x="167" y="761"/>
      <point x="167" y="824" type="qcurve" smooth="yes"/>
      <point x="167" y="849" type="line" smooth="yes"/>
      <point x="167" y="912"/>
      <point x="247" y="912" type="qcurve" smooth="yes"/>
      <point x="327" y="912"/>
      <point x="327" y="849" type="qcurve" smooth="yes"/>
      <point x="327" y="824" type="line" smooth="yes"/>
      <point x="327" y="761"/>
    </contour>
    <contour>
      <point x="467" y="761" type="qcurve" smooth="yes"/>
      <point x="387" y="761"/>
      <point x="387" y="824" type="qcurve" smooth="yes"/>
      <point x="387" y="849" type="line" smooth="yes"/>
      <point x="387" y="912"/>
      <point x="467" y="912" type="qcurve" smooth="yes"/>
      <point x="547" y="912"/>
      <point x="547" y="849" type="qcurve" smooth="yes"/>
      <point x="547" y="824" type="line" smooth="yes"/>
      <point x="547" y="761"/>
    </contour>
  </outline>
</glyph>
<glyph name="atilde" format="2">
  <advance width="553"/>
  <unicode hex="00E3"/>
  <outline>
    <contour>
      <point x="252" y="91" type="qcurve" smooth="yes"/>
      <point x="289" y="91"/>
      <point x="342" y="123"/>
      <point x="342" y="159" type="qcurve" smooth="yes"/>
      <point x="342" y="221" type="line"/>
      <point x="270" y="221" type="line" smooth="yes"/>
      <point x="183" y="221"/>
      <point x="183" y="162" type="qcurve" smooth="yes"/>
      <point x="183" y="147" type="line" smooth="yes"/>
      <point x="183" y="91"/>
    </contour>
    <contour>
      <point x="197" y="-12" type="qcurve" smooth="yes"/>
      <point x="118" y="-12"/>
      <point x="34" y="72"/>
      <point x="34" y="141" type="qcurve" smooth="yes"/>
      <point x="34" y="224"/>
      <point x="155" y="305"/>
      <point x="259" y="305" type="qcurve" smooth="yes"/>
      <point x="342" y="305" type="line"/>
      <point x="342" y="338" type="line" smooth="yes"/>
      <point x="342" y="421"/>
      <point x="255" y="421" type="qcurve" smooth="yes"/>
      <point x="211" y="421"/>
      <point x="159" y="384"/>
      <point x="142" y="359" type="qcurve"/>
      <point x="54" y="437" type="line"/>
      <point x="85" y="485"/>
      <point x="183" y="537"/>
      <point x="266" y="537" type="qcurve" smooth="yes"/>
      <point x="490" y="537"/>
      <point x="490" y="345" type="qcurve" smooth="yes"/>
      <point x="490" y="0" type="line"/>
      <point x="357" y="0" type="line"/>
      <point x="357" y="92" type="line"/>
      <point x="351" y="92" type="line"/>
      <point x="338" y="41"/>
      <point x="257" y="-12"/>
    </contour>
    <contour>
      <point x="345" y="601" type="qcurve" smooth="yes"/>
      <point x="322" y="601"/>
      <point x="304" y="607" type="qcurve"/>
      <point x="262" y="623" type="line"/>
      <point x="243" y="632"/>
      <point x="209" y="643"/>
      <point x="190" y="643" type="qcurve" smooth="yes"/>
      <point x="173" y="643"/>
      <point x="146" y="631"/>
      <point x="131" y="618" type="qcurve"/>
      <point x="79" y="686" type="line"/>
      <point x="120" y="750"/>
      <point x="193" y="750" type="qcurve" smooth="yes"/>
      <point x="216" y="750"/>
      <point x="234" y="744" type="qcurve"/>
      <point x="276" y="728" type="line"/>
      <point x="295" y="719"/>
      <point x="329" y="708"/>
      <point x="348" y="708" type="qcurve" smooth="yes"/>
      <point x="365" y="708"/>
      <point x="392" y="720"/>
      <point x="407" y="733" type="qcurve"/>
      <point x="459" y="665" type="line"/>
      <point x="418" y="601"/>
    </contour>
  </outline>
</glyph>
<glyph name="iacute" format="2">
  <advance width="286"/>
  <unicode hex="00ED"/>
  <outline>
    <contour>
      <point x="69" y="0" type="line"/>
      <point x="69" y="525" type="line"/>
      <point x="217" y="525" type="line"/>
      <point x="217" y="0" type="line"/>
    </contour>
    <contour>
      <point x="72" y="622" type="line"/>
      <point x="171" y="816" type="line"/>
      <point x="294" y="755" type="line"/>
      <point x="160" y="579" type="line"/>
    </contour>
  </outline>
</glyph>
<glyph name="ocircumflex" format="2">
  <advance width="564"/>
  <unicode hex="00F4"/>
  <outline>
    <contour>
      <point x="282" y="105" type="qcurve"/>
      <point x="374" y="109"/>
      <point x="374" y="209" type="qcurve" smooth="yes"/>
      <point x="374" y="316" type="line"/>
      <point x="371" y="420"/>
      <point x="282" y="420" type="qcurve"/>
      <point x="190" y="417"/>
      <point x="190" y="316" type="qcurve" smooth="yes"/>
      <point x="190" y="209" type="line"/>
      <point x="194" y="105"/>
    </contour>
    <contour>
      <point x="282" y="-12" type="qcurve" smooth="yes"/>
      <point x="167" y="-12"/>
      <point x="36" y="137"/>
      <point x="36" y="263" type="qcurve" smooth="yes"/>
      <point x="36" y="389"/>
      <point x="167" y="537"/>
      <point x="282" y="537" type="qcurve" smooth="yes"/>
      <point x="398" y="537"/>
      <point x="528" y="389"/>
      <point x="528" y="263" type="qcurve" smooth="yes"/>
      <point x="528" y="137"/>
      <point x="398" y="-12"/>
    </contour>
    <contour>
      <point x="282" y="693" type="line"/>
      <point x="161" y="578" type="line"/>
      <point x="88" y="636" type="line"/>
      <point x="220" y="795" type="line"/>
      <point x="344" y="795" type="line"/>
      <point x="476" y="636" type="line"/>
      <point x="403" y="578" type="line"/>
    </contour>
  </outline>
</glyph>
<glyph name="divide" format="2">
  <advance width="600"/>
  <unicode hex="00F7"/>
  <outline>
    <contour>
      <point x="300" y="28" type="qcurve" smooth="yes"/>
      <point x="253" y="28"/>
      <point x="213" y="69"/>
      <point x="213" y="97" type="qcurve" smooth="yes"/>
      <point x="213" y="121" type="line" smooth="yes"/>
      <point x="213" y="149"/>
      <point x="253" y="190"/>
      <point x="300" y="190" type="qcurve" smooth="yes"/>
      <point x="347" y="190"/>
      <point x="387" y="149"/>
      <point x="387" y="121" type="qcurve" smooth="yes"/>
      <point x="387" y="97" type="line" smooth="yes"/>
      <point x="387" y="69"/>
      <point x="347" y="28"/>
    </contour>
    <contour>
      <point x="300" y="420" type="qcurve" smooth="yes"/>
      <point x="253" y="420"/>
      <point x="213" y="461"/>
      <point x="213" y="489" type="qcurve" smooth="yes"/>
      <point x="213" y="513" type="line" smooth="yes"/>
      <point x="213" y="541"/>
      <point x="253" y="582"/>
      <point x="300" y="582" type="qcurve" smooth="yes"/>
      <point x="347" y="582"/>
      <point x="387" y="541"/>
      <point x="387" y="513" type="qcurve" smooth="yes"/>
      <point x="387" y="489" type="line" smooth="yes"/>
      <point x="387" y="461"/>
      <point x="347" y="420"/>
    </contour>
    <contour>
      <point x="67" y="247" type="line"/>
      <point x="67" y="365" type="line"/>
      <point x="532" y="365" type="line"/>
      <point x="532" y="247" type="line"/>
    </contour>
  </outline>
</glyph>
<glyph name="oslash" format="2">
  <advance width="572"/>
  <unicode hex="00F8"/>
  <outline>
    <contour>
      <point x="286" y="96" type="qcurve" smooth="yes"/>
      <point x="332" y="96"/>
      <point x="383" y="160"/>
      <point x="383" y="214" type="qcurve" smooth="yes"/>
      <point x="383" y="312" type="line"/>
      <point x="222" y="119" type="line"/>
      <point x="247" y="96"/>
    </contour>
    <contour>
      <point x="349" y="406" type="line"/>
      <point x="324" y="429"/>
      <point x="286" y="429" type="qcurve" smooth="yes"/>
      <point x="240" y="429"/>
      <point x="189" y="365"/>
      <point x="189" y="311" type="qcurve" smooth="yes"/>
      <point x="189" y="214" type="line"/>
    </contour>
    <contour>
      <point x="14" y="10" type="line"/>
      <point x="81" y="93" type="line"/>
      <point x="40" y="161"/>
      <point x="40" y="263" type="qcurve" smooth="yes"/>
      <point x="40" y="389"/>
      <point x="171" y="537"/>
      <point x="286" y="537" type="qcurve" smooth="yes"/>
      <point x="361" y="537"/>
      <point x="418" y="503" type="qcurve"/>
      <point x="478" y="575" type="line"/>
      <point x="558" y="515" type="line"/>
      <point x="490" y="431" type="line"/>
      <point x="532" y="366"/>
      <point x="532" y="262" type="qcurve" smooth="yes"/>
      <point x="532" y="136"/>
      <point x="402" y="-12"/>
      <point x="286" y="-12" type="qcurve" smooth="yes"/>
      <point x="210" y="-12"/>
      <point x="154" y="21" type="qcurve"/>
      <point x="94" y="-50" type="line"/>
    </contour>
  </outline>
</glyph>
<glyph name="ydieresis" format="2">
  <advance width="534"/>
  <unicode hex="00FF"/>
  <outline>
    <contour>
      <point x="73" y="-200" type="line"/>
      <point x="73" y="-85" type="line"/>
      <point x="172" y="-85" type="line"/>
      <point x="190" y="-27" type="line"/>
      <point x="6" y="525" type="line"/>
      <point x="153" y="525" type="line"/>
      <point x="230" y="280" type="line"/>
      <point x="268" y="128" type="line"/>
      <point x="274" y="128" type="line"/>
      <point x="313" y="280" type="line"/>
      <point x="390" y="525" type="line"/>
      <point x="528" y="525" type="line"/>
      <point x="326" y="-81" type="line"/>
      <point x="307" y="-142"/>
      <point x="233" y="-200"/>
      <point x="165" y="-200" type="qcurve" smooth="yes"/>
    </contour>
    <contour>
      <point x="162" y="600" type="qcurve" smooth="yes"/>
      <point x="82" y="600"/>
      <point x="82" y="663" type="qcurve" smooth="yes"/>
      <point x="82" y="688" type="line" smooth="yes"/>
      <point x="82" y="751"/>
      <point x="162" y="751" type="qcurve" smooth="yes"/>
      <point x="242" y="751"/>
      <point x="242" y="688" type="qcurve" smooth="yes"/>
      <point x="242" y="663" type="line" smooth="yes"/>
      <point x="242" y="600"/>
    </contour>
    <contour>
      <point x="382" y="600" type="qcurve" smooth="yes"/>
      <point x="302" y="600"/>
      <point x="302" y="663" type="qcurve" smooth="yes"/>
      <point x="302" y="688" type="line" smooth="yes"/>
      <point x="302" y="751"/>
      <point x="382" y="751" type="qcurve" smooth="yes"/>
      <point x="462" y="751"/>
      <point x="462" y="688" type="qcurve" smooth="yes"/>
      <point x="462" y="663" type="line" smooth="yes"/>
      <point x="462" y="600"/>
    </contour>
  </outline>
</glyph>
<glyph name="Dcaron" format="2">
  <advance width="697"/>
  <unicode hex="010E"/>
  <outline>
    <contour>
      <point x="340" y="135" type="line" smooth="yes"/>
      <point x="486" y="135"/>
      <point x="486" y="295" type="qcurve" smooth="yes"/>
      <point x="486" y="403" type="line" smooth="yes"/>
      <point x="486" y="563"/>
      <point x="340" y="563" type="qcurve" smooth="yes"/>
      <point x="229" y="563" type="line"/>
      <point x="229" y="135" type="line"/>
    </contour>
    <contour>
      <point x="77" y="0" type="line"/>
      <point x="77" y="698" type="line"/>
      <point x="340" y="698" type="line" smooth="yes"/>
      <point x="478" y="698"/>
      <point x="563" y="611" type="qcurve"/>
      <point x="647" y="520"/>
      <point x="647" y="349" type="qcurve" smooth="yes"/>
      <point x="647" y="179"/>
      <point x="563" y="88" type="qcurve"/>
      <point x="478" y="0"/>
      <point x="340" y="0" type="qcurve" smooth="yes"/>
    </contour>
    <contour>
      <point x="261" y="748" type="line"/>
      <point x="129" y="907" type="line"/>
      <point x="202" y="965" type="line"/>
      <point x="323" y="850" type="line"/>
      <point x="444" y="965" type="line"/>
      <point x="517" y="907" type="line"/>
      <point x="385" y="748" type="line"/>
    </contour>
  </outline>
</glyph>
<glyph name="Dcroat" format="2">
  <advance width="702"/>
  <unicode hex="0110"/>
  <outline>
    <contour>
      <point x="345" y="135" type="line" smooth="yes"/>
      <point x="491" y="135"/>
      <point x="491" y="295" type="qcurve" smooth="yes"/>
      <point x="491" y="403" type="line" smooth="yes"/>
      <point x="491" y="563"/>
      <point x="345" y="563" type="qcurve" smooth="yes"/>
      <point x="234" y="563" type="line"/>
      <point x="234" y="411" type="line"/>
      <point x="353" y="411" type="line"/>
      <point x="353" y="297" type="line"/>
      <point x="234" y="297" type="line"/>
      <point x="234" y="135" type="line"/>
    </contour>
    <contour>
      <point x="82" y="0" type="line"/>
      <point x="82" y="297" type="line"/>
      <point x="7" y="297" type="line"/>
      <point x="7" y="411" type="line"/>
      <point x="82" y="411" type="line"/>
      <point x="82" y="698" type="line"/>
      <point x="345" y="698" type="line" smooth="yes"/>
      <point x="483" y="698"/>
      <point x="568" y="611" type="qcurve"/>
      <point x="652" y="520"/>
      <point x="652" y="349" type="qcurve" smooth="yes"/>
      <point x="652" y="179"/>
      <point x="568" y="88" type="qcurve"/>
      <point x="483" y="0"/>
      <point x="345" y="0" type="qcurve" smooth="yes"/>
    </contour>
  </outline>
</glyph>
<glyph name="Emacron" format="2">
  <advance width="607"/>
  <unicode hex="0112"/>
  <outline>
    <contour>
      <point x="77" y="0" type="line"/>
      <point x="77" y="698" type="line"/>
      <point x="552" y="698" type="line"/>
      <point x="552" y="563" type="line"/>
      <point x="229" y="563" type="line"/>
      <point x="229" y="420" type="line"/>
      <point x="506" y="420" type="line"/>
      <point x="506" y="286" type="line"/>
      <point x="229" y="286" type="line"/>
      <point x="229" y="135" type="line"/>
      <point x="552" y="135" type="line"/>
      <point x="552" y="0" type="line"/>
    </contour>
    <contour>
      <point x="162" y="785" type="line"/>
      <point x="162" y="888" type="line"/>
      <point x="468" y="888" type="line"/>
      <point x="468" y="785" type="line"/>
    </contour>
  </outline>
</glyph>
<glyph name="Edotaccent" format="2">
  <advance width="607"/>
  <unicode hex="0116"/>
  <outline>
    <contour>
      <point x="77" y="0" type="line"/>
      <point x="77" y="698" type="line"/>
      <point x="552" y="698" type="line"/>
      <point x="552" y="563" type="line"/>
      <point x="229" y="563" type="line"/>
      <point x="229" y="420" type="line"/>
      <point x="506" y="420" type="line"/>
      <point x="506" y="286" type="line"/>
      <point x="229" y="286" type="line"/>
      <point x="229" y="135" type="line"/>
      <point x="552" y="135" type="line"/>
      <point x="552" y="0" type="line"/>
    </contour>
    <contour>
      <point x="315" y="752" type="qcurve" smooth="yes"/>
      <point x="226" y="752"/>
      <point x="226" y="822" type="qcurve" smooth="yes"/>
      <point x="226" y="851" type="line" smooth="yes"/>
      <point x="226" y="921"/>
      <point x="315" y="921" type="qcurve" smooth="yes"/>
      <point x="404" y="921"/>
      <point x="404" y="851" type="qcurve" smooth="yes"/>
      <point x="404" y="822" type="line" smooth="yes"/>
      <point x="404" y="752"/>
    </contour>
  </outline>
</glyph>
<glyph name="ibreve" format="2">
  <advance width="286"/>
  <unicode hex="012D"/>
  <outline>
    <contour>
      <point x="69" y="0" type="line"/>
      <point x="69" y="525" type="line"/>
      <point x="217" y="525" type="line"/>
      <point x="217" y="0" type="line"/>
    </contour>
    <contour>
      <point x="144" y="579" type="qcurve" smooth="yes"/>
      <point x="64" y="579"/>
      <point x="14" y="637" type="qcurve"/>
      <point x="-29" y="691"/>
      <point x="-46" y="749" type="qcurve"/>
      <point x="35" y="791" type="line"/>
      <point x="55" y="758" type="line" smooth="yes"/>
      <point x="76" y="722"/>
      <point x="118" y="682"/>
      <point x="144" y="682" type="qcurve" smooth="yes"/>
      <point x="170" y="682"/>
      <point x="213" y="722"/>
      <point x="234" y="758" type="qcurve" smooth="yes"/>
      <point x="254" y="791" type="line"/>
      <point x="334" y="749" type="line"/>
      <point x="317" y="691"/>
      <point x="272" y="637" type="qcurve"/>
      <point x="219" y="579"/>
    </contour>
  </outline>
</glyph>
<glyph name="Lcaron" format="2">
  <advance width="530"/>
  <unicode hex="013D"/>
  <outline>
    <contour>
      <point x="77" y="0" type="line"/>
      <point x="77" y="698" type="line"/>
      <point x="229" y="698" type="line"/>
      <point x="229" y="135" type="line"/>
      <point x="495" y="135" type="line"/>
      <point x="495" y="0" type="line"/>
    </contour>
    <contour>
      <point x="301" y="525" type="line"/>
      <point x="307" y="740" type="line"/>
      <point x="464" y="740" type="line"/>
      <point x="398" y="525" type="line"/>
    </contour>
  </outline>
</glyph>
<glyph name="lcaron" format="2">
  <advance width="360"/>
  <unicode hex="013E"/>
  <outline>
    <contour>
      <point x="216" y="0" type="line" smooth="yes"/>
      <point x="69" y="0"/>
      <point x="69" y="144" type="qcurve" smooth="yes"/>
      <point x="69" y="740" type="line"/>
      <point x="217" y="740" type="line"/>
      <point x="217" y="115" type="line"/>
      <point x="283" y="115" type="line"/>
      <point x="283" y="0" type="line"/>
    </contour>
    <contour>
      <point x="280" y="525" type="line"/>
      <point x="286" y="740" type="line"/>
      <point x="443" y="740" type="line"/>
      <point x="377" y="525" type="line"/>
    </contour>
  </outline>
</glyph>
<glyph name="ldot" format="2">
  <advance width="448"/>
  <unicode hex="0140"/>
  <outline>
    <contour>
      <point x="363" y="274" type="qcurve" smooth="yes"/>
      <point x="274" y="274"/>
      <point x="274" y="344" type="qcurve" smooth="yes"/>
      <point x="274" y="373" type="line" smooth="yes"/>
      <point x="274" y="443"/>
      <point x="363" y="443" type="qcurve" smooth="yes"/>
      <point x="452" y="443"/>
      <point x="452" y="373" type="qcurve" smooth="yes"/>
      <point x="452" y="344" type="line" smooth="yes"/>
      <point x="452" y="274"/>
    </contour>
    <contour>
      <point x="216" y="0" type="line" smooth="yes"/>
      <point x="69" y="0"/>
      <point x="69" y="144" type="qcurve" smooth="yes"/>
      <point x="69" y="740" type="line"/>
      <point x="217" y="740" type="line"/>
      <point x="217" y="115" type="line"/>
      <point x="283" y="115" type="line"/>
      <point x="283" y="0" type="line"/>
    </contour>
  </outline>
</glyph>
<glyph name="napostrophe" format="2">
  <advance width="886"/>
  <unicode hex="0149"/>
  <outline>
    <contour>
      <point x="675" y="0" type="line"/>
      <point x="675" y="317" type="line" smooth="yes"/>
      <point x="675" y="368"/>
      <point x="643" y="417"/>
      <point x="602" y="417" type="qcurve" smooth="yes"/>
      <point x="566" y="417"/>
      <point x="507" y="378"/>
      <point x="507" y="340" type="qcurve" smooth="yes"/>
      <point x="507" y="0" type="line"/>
      <point x="359" y="0" type="line"/>
      <point x="359" y="525" type="line"/>
      <point x="507" y="525" type="line"/>
      <point x="507" y="436" type="line"/>
      <point x="513" y="436" type="line"/>
      <point x="527" y="478"/>
      <point x="597" y="537"/>
      <point x="659" y="537" type="qcurve" smooth="yes"/>
      <point x="740" y="537"/>
      <point x="823" y="429"/>
      <point x="823" y="329" type="qcurve" smooth="yes"/>
      <point x="823" y="0" type="line"/>
    </contour>
    <contour>
      <point x="36" y="450" type="line"/>
      <point x="103" y="507"/>
      <point x="128" y="580" type="qcurve"/>
      <point x="96" y="587"/>
      <point x="66" y="627"/>
      <point x="66" y="653" type="qcurve" smooth="yes"/>
      <point x="66" y="678" type="line" smooth="yes"/>
      <point x="66" y="709"/>
      <point x="107" y="750"/>
      <point x="152" y="750" type="qcurve" smooth="yes"/>
      <point x="197" y="750"/>
      <point x="238" y="709"/>
      <point x="238" y="678" type="qcurve" smooth="yes"/>
      <point x="238" y="657" type="line" smooth="yes"/>
      <point x="238" y="599"/>
      <point x="176" y="487"/>
      <point x="129" y="450" type="qcurve"/>
    </contour>
  </outline>
</glyph>
<glyph name="uhungarumlaut" format="2">
  <advance width="596"/>
  <unicode hex="0171"/>
  <outline>
    <contour>
      <point x="227" y="-12" type="qcurve" smooth="yes"/>
      <point x="146" y="-12"/>
      <point x="63" y="95"/>
      <point x="63" y="195" type="qcurve" smooth="yes"/>
      <point x="63" y="525" type="line"/>
      <point x="211" y="525" type="line"/>
      <point x="211" y="208" type="line" smooth="yes"/>
      <point x="211" y="160"/>
      <point x="245" y="108"/>
      <point x="286" y="108" type="qcurve" smooth="yes"/>
      <point x="321" y="108"/>
      <point x="379" y="147"/>
      <point x="379" y="184" type="qcurve" smooth="yes"/>
      <point x="379" y="525" type="line"/>
      <point x="527" y="525" type="line"/>
      <point x="527" y="0" type="line"/>
      <point x="379" y="0" type="line"/>
      <point x="379" y="88" type="line"/>
      <point x="374" y="88" type="line"/>
      <point x="361" y="47"/>
      <point x="292" y="-12"/>
    </contour>
    <contour>
      <point x="125" y="618" type="line"/>
      <point x="224" y="812" type="line"/>
      <point x="340" y="755" type="line"/>
      <point x="206" y="579" type="line"/>
    </contour>
    <contour>
      <point x="330" y="618" type="line"/>
      <point x="429" y="812" type="line"/>
      <point x="545" y="755" type="line"/>
      <point x="411" y="579" type="line"/>
    </contour>
  </outline>
</glyph>
<glyph name="Uogonek" format="2">
  <advance width="694"/>
  <unicode hex="0172"/>
  <outline>
    <contour>
      <point x="421" y="-212" type="qcurve" smooth="yes"/>
      <point x="372" y="-212"/>
      <point x="298" y="-174"/>
      <point x="298" y="-128" type="qcurve" smooth="yes"/>
      <point x="298" y="-86"/>
      <point x="362" y="-36"/>
      <point x="417" y="-14" type="qcurve"/>
      <point x="415" y="-8" type="line"/>
      <point x="385" y="-12"/>
      <point x="347" y="-12" type="qcurve" smooth="yes"/>
      <point x="197" y="-12"/>
      <point x="135" y="60" type="qcurve"/>
      <point x="73" y="128"/>
      <point x="73" y="286" type="qcurve" smooth="yes"/>
      <point x="73" y="698" type="line"/>
      <point x="221" y="698" type="line"/>
      <point x="221" y="270" type="line" smooth="yes"/>
      <point x="221" y="196"/>
      <point x="279" y="123"/>
      <point x="347" y="123" type="qcurve" smooth="yes"/>
      <point x="415" y="123"/>
      <point x="473" y="196"/>
      <point x="473" y="270" type="qcurve" smooth="yes"/>
      <point x="473" y="698" type="line"/>
      <point x="621" y="698" type="line"/>
      <point x="621" y="286" type="line" smooth="yes"/>
      <point x="621" y="183"/>
      <point x="596" y="115" type="qcurve" smooth="yes"/>
      <point x="563" y="29"/>
      <point x="464" y="-29" type="qcurve"/>
      <point x="397" y="-71"/>
      <point x="397" y="-106" type="qcurve" smooth="yes"/>
      <point x="397" y="-123"/>
      <point x="420" y="-138"/>
      <point x="435" y="-138" type="qcurve" smooth="yes"/>
      <point x="453" y="-138"/>
      <point x="478" y="-122"/>
      <point x="489" y="-110" type="qcurve"/>
      <point x="542" y="-161" type="line"/>
      <point x="516" y="-212"/>
    </contour>
  </outline>
</glyph>
<glyph name="Ycircumflex" format="2">
  <advance width="649"/>
  <unicode hex="0176"/>
  <outline>
    <contour>
      <point x="248" y="0" type="line"/>
      <point x="248" y="273" type="line"/>
      <point x="9" y="698" type="line"/>
      <point x="179" y="698" type="line"/>
      <point x="329" y="420" type="line"/>
      <point x="331" y="420" type="line"/>
      <point x="475" y="698" type="line"/>
      <point x="640" y="698" type="line"/>
      <point x="401" y="274" type="line"/>
      <point x="401" y="0" type="line"/>
    </contour>
    <contour>
      <point x="325" y="854" type="line"/>
      <point x="204" y="739" type="line"/>
      <point x="131" y="797" type="line"/>
      <point x="263" y="956" type="line"/>
      <point x="387" y="956" type="line"/>
      <point x="519" y="797" type="line"/>
      <point x="446" y="739" type="line"/>
    </contour>
  </outline>
</glyph>
<glyph name="florin" format="2">
  <advance width="484"/>
  <unicode hex="0192"/>
  <outline>
    <contour>
      <point x="5" y="-134" type="line"/>
      <point x="17" y="-19" type="line"/>
      <point x="132" y="-19" type="line"/>
      <point x="160" y="251" type="line"/>
      <point x="54" y="251" type="line"/>
      <point x="66" y="371" type="line"/>
      <point x="172" y="371" type="line"/>
      <point x="190" y="546" type="line" smooth="yes"/>
      <point x="197" y="613"/>
      <point x="282" y="698"/>
      <point x="362" y="698" type="qcurve" smooth="yes"/>
      <point x="472" y="698" type="line"/>
      <point x="460" y="583" type="line"/>
      <point x="341" y="583" type="line"/>
      <point x="319" y="371" type="line"/>
      <point x="444" y="371" type="line"/>
      <point x="434" y="251" type="line"/>
      <point x="307" y="251" type="line"/>
      <point x="283" y="17" type="line" smooth="yes"/>
      <point x="276" y="-50"/>
      <point x="192" y="-134"/>
      <point x="111" y="-134" type="qcurve" smooth="yes"/>
    </contour>
  </outline>
</glyph>
<glyph name="AEacute" format="2">
  <advance width="968"/>
  <unicode hex="01FC"/>
  <outline>
    <contour>
      <point x="438" y="563" type="line"/>
      <point x="415" y="563" type="line"/>
      <point x="290" y="295" type="line"/>
      <point x="438" y="295" type="line"/>
    </contour>
    <contour>
      <point x="438" y="0" type="line"/>
      <point x="438" y="166" type="line"/>
      <point x="229" y="166" type="line"/>
      <point x="151" y="0" type="line"/>
      <point x="-1" y="0" type="line"/>
      <point x="340" y="698" type="line"/>
      <point x="913" y="698" type="line"/>
      <point x="913" y="563" type="line"/>
      <point x="589" y="563" type="line"/>
      <point x="589" y="420" type="line"/>
      <point x="867" y="420" type="line"/>
      <point x="867" y="286" type="line"/>
      <point x="589" y="286" type="line"/>
      <point x="589" y="135" type="line"/>
      <point x="913" y="135" type="line"/>
      <point x="913" y="0" type="line"/>
    </contour>
    <contour>
      <point x="507" y="783" type="line"/>
      <point x="606" y="977" type="line"/>
      <point x="729" y="916" type="line"/>
      <point x="595" y="740" type="line"/>
    </contour>
  </outline>
</glyph>
<glyph name="schwa" format="2">
  <advance width="562"/>
  <unicode hex="0259"/>
  <outline>
    <contour>
      <point x="277" y="97" type="qcurve" smooth="yes"/>
      <point x="322" y="97"/>
      <point x="373" y="156"/>
      <point x="373" y="205" type="qcurve" smooth="yes"/>
      <point x="373" y="213" type="line"/>
      <point x="189" y="213" type="line"/>
      <point x="189" y="204" type="line" smooth="yes"/>
      <point x="189" y="156"/>
      <point x="232" y="97"/>
    </contour>
    <contour>
      <point x="280" y="-12" type="qcurve" smooth="yes"/>
      <point x="156" y="-12"/>
      <point x="93" y="69" type="qcurve" smooth="yes"/>
      <point x="36" y="140"/>
      <point x="36" y="256" type="qcurve" smooth="yes"/>
      <point x="36" y="300" type="line"/>
      <point x="373" y="300" type="line"/>
      <point x="373" y="308" type="line" smooth="yes"/>
      <point x="373" y="360"/>
      <point x="319" y="421"/>
      <point x="262" y="421" type="qcurve" smooth="yes"/>
      <point x="213" y="421"/>
      <point x="184" y="400" type="qcurve"/>
      <point x="169" y="391"/>
      <point x="158" y="380" type="qcurve" smooth="yes"/>
      <point x="136" y="358" type="line"/>
      <point x="62" y="450" type="line"/>
      <point x="135" y="537"/>
      <point x="279" y="537" type="qcurve" smooth="yes"/>
      <point x="398" y="537"/>
      <point x="526" y="388"/>
      <point x="526" y="262" type="qcurve" smooth="yes"/>
      <point x="526" y="138"/>
      <point x="399" y="-12"/>
    </contour>
  </outline>
</glyph>
<glyph name="acutecomb" format="2">
  <unicode hex="0301"/>
  <outline>
    <contour>
      <point x="-71" y="622" type="line"/>
      <point x="28" y="816" type="line"/>
      <point x="151" y="755" type="line"/>
      <point x="17" y="579" type="line"/>
    </contour>
  </outline>
</glyph>
<glyph name="hungarumlautcomb" format="2">
  <unicode hex="030B"/>
  <outline>
    <contour>
      <point x="35" y="618" type="line"/>
      <point x="134" y="812" type="line"/>
      <point x="250" y="755" type="line"/>
      <point x="116" y="579" type="line"/>
    </contour>
    <contour>
      <point x="-170" y="618" type="line"/>
      <point x="-71" y="812" type="line"/>
      <point x="45" y="755" type="line"/>
      <point x="-89" y="579" type="line"/>
    </contour>
  </outline>
</glyph>
<glyph name="horncomb" format="2">
  <unicode hex="031B"/>
  <outline>
    <contour>
      <point x="-125" y="436" type="line"/>
      <point x="-125" y="525" type="line"/>
      <point x="1" y="525" type="line"/>
      <point x="1" y="631" type="line"/>
      <point x="125" y="631" type="line"/>
      <point x="125" y="537" type="line" smooth="yes"/>
      <point x="125" y="486"/>
      <point x="85" y="436"/>
      <point x="25" y="436" type="qcurve" smooth="yes"/>
    </contour>
  </outline>
</glyph>
<glyph name="tonos" format="2">
  <advance width="600"/>
  <unicode hex="0384"/>
  <outline>
    <contour>
      <point x="352" y="579" type="line"/>
      <point x="257" y="593" type="line"/>
      <point x="292" y="816" type="line"/>
      <point x="425" y="796" type="line"/>
    </contour>
  </outline>
</glyph>
<glyph name="Epsilontonos" format="2">
  <advance width="703"/>
  <unicode hex="0388"/>
  <outline>
    <contour>
      <point x="173" y="0" type="line"/>
      <point x="173" y="698" type="line"/>
      <point x="648" y="698" type="line"/>
      <point x="648" y="563" type="line"/>
      <point x="325" y="563" type="line"/>
      <point x="325" y="420" type="line"/>
      <point x="602" y="420" type="line"/>
      <point x="602" y="286" type="line"/>
      <point x="325" y="286" type="line"/>
      <point x="325" y="135" type="line"/>
      <point x="648" y="135" type="line"/>
      <point x="648" y="0" type="line"/>
    </contour>
    <contour>
      <point x="80" y="579" type="line"/>
      <point x="-15" y="593" type="line"/>
      <point x="20" y="816" type="line"/>
      <point x="153" y="796" type="line"/>
    </contour>
  </outline>
</glyph>
<glyph name="Omicrontonos" format="2">
  <advance width="756"/>
  <unicode hex="038C"/>
  <outline>
    <contour>
      <point x="399" y="123" type="qcurve" smooth="yes"/>
      <point x="468" y="123"/>
      <point x="545" y="213"/>
      <point x="545" y="297" type="qcurve" smooth="yes"/>
      <point x="545" y="401" type="line" smooth="yes"/>
      <point x="545" y="485"/>
      <point x="468" y="575"/>
      <point x="399" y="575" type="qcurve" smooth="yes"/>
      <point x="330" y="575"/>
      <point x="253" y="485"/>
      <point x="253" y="401" type="qcurve" smooth="yes"/>
      <point x="253" y="297" type="line" smooth="yes"/>
      <point x="253" y="213"/>
      <point x="330" y="123"/>
    </contour>
    <contour>
      <point x="399" y="-12" type="qcurve" smooth="yes"/>
      <point x="330" y="-12"/>
      <point x="216" y="34"/>
      <point x="136" y="125"/>
      <point x="92" y="260"/>
      <point x="92" y="349" type="qcurve" smooth="yes"/>
      <point x="92" y="438"/>
      <point x="136" y="573"/>
      <point x="216" y="664"/>
      <point x="330" y="710"/>
      <point x="399" y="710" type="qcurve" smooth="yes"/>
      <point x="468" y="710"/>
      <point x="582" y="664"/>
      <point x="662" y="573"/>
      <point x="706" y="438"/>
      <point x="706" y="349" type="qcurve" smooth="yes"/>
      <point x="706" y="260"/>
      <point x="662" y="125"/>
      <point x="582" y="34"/>
      <point x="468" y="-12"/>
    </contour>
    <contour>
      <point x="80" y="579" type="line"/>
      <point x="-15" y="593" type="line"/>
      <point x="20" y="816" type="line"/>
      <point x="153" y="796" type="line"/>
    </contour>
  </outline>
</glyph>
<glyph name="iota" format="2">
  <advance width="329"/>
  <unicode hex="03B9"/>
  <outline>
    <contour>
      <point x="313" y="0" type="line"/>
      <point x="225" y="0" type="line" smooth="yes"/>
      <point x="148" y="0"/>
      <point x="69" y="78"/>
      <point x="69" y="153" type="qcurve" smooth="yes"/>
      <point x="69" y="525" type="line"/>
      <point x="217" y="525" type="line"/>
      <point x="217" y="115" type="line"/>
      <point x="313" y="115" type="line"/>
    </contour>
  </outline>
</glyph>
<glyph name="upsilondieresis" format="2">
  <advance width="582"/>
  <unicode hex="03CB"/>
  <outline>
    <contour>
      <point x="207" y="210" type="line" smooth="yes"/>
      <point x="207" y="157"/>
      <point x="247" y="105"/>
      <point x="291" y="105" type="qcurve" smooth="yes"/>
      <point x="335" y="105"/>
      <point x="375" y="157"/>
      <point x="375" y="210" type="qcurve" smooth="yes"/>
      <point x="375" y="525" type="line"/>
      <point x="523" y="525" type="line"/>
      <point x="523" y="239" type="line" smooth="yes"/>
      <point x="523" y="-12"/>
      <point x="291" y="-12" type="qcurve" smooth="yes"/>
      <point x="59" y="-12"/>
      <point x="59" y="239" type="qcurve" smooth="yes"/>
      <point x="59" y="525" type="line"/>
      <point x="207" y="525" type="line"/>
    </contour>
    <contour>
      <point x="188" y="600" type="qcurve" smooth="yes"/>
      <point x="143" y="600"/>
      <point x="108" y="637"/>
      <point x="108" y="663" type="qcurve" smooth="yes"/>
      <point x="108" y="688" type="line" smooth="yes"/>
      <point x="108" y="714"/>
      <point x="143" y="751"/>
      <point x="188" y="751" type="qcurve" smooth="yes"/>
      <point x="233" y="751"/>
      <point x="268" y="714"/>
      <point x="268" y="688" type="qcurve" smooth="yes"/>
      <point x="268" y="663" type="line" smooth="yes"/>
      <point x="268" y="637"/>
      <point x="233" y="600"/>
    </contour>
    <contour>
      <point x="408" y="600" type="qcurve" smooth="yes"/>
      <point x="363" y="600"/>
      <point x="328" y="637"/>
      <point x="328" y="663" type="qcurve" smooth="yes"/>
      <point x="328" y="688" type="line" smooth="yes"/>
      <point x="328" y="714"/>
      <point x="363" y="751"/>
      <point x="408" y="751" type="qcurve" smooth="yes"/>
      <point x="453" y="751"/>
      <point x="488" y="714"/>
      <point x="488" y="688" type="qcurve" smooth="yes"/>
      <point x="488" y="663" type="line" smooth="yes"/>
      <point x="488" y="637"/>
      <point x="453" y="600"/>
    </contour>
  </outline>
</glyph>
<glyph name="Emcyr" format="2">
  <advance width="819"/>
  <unicode hex="041C"/>
  <outline>
    <contour>
      <point x="599" y="0" type="line"/>
      <point x="599" y="458" type="line"/>
      <point x="596" y="458" type="line"/>
      <point x="545" y="356" type="line"/>
      <point x="409" y="109" type="line"/>
      <point x="276" y="355" type="line"/>
      <point x="223" y="465" type="line"/>
      <point x="220" y="465" type="line"/>
      <point x="220" y="0" type="line"/>
      <point x="77" y="0" type="line"/>
      <point x="77" y="698" type="line"/>
      <point x="238" y="698" type="line"/>
      <point x="409" y="371" type="line"/>
      <point x="411" y="371" type="line"/>
      <point x="580" y="698" type="line"/>
      <point x="742" y="698" type="line"/>
      <point x="742" y="0" type="line"/>
    </contour>
  </outline>
</glyph>
<glyph name="vecyr" format="2">
  <advance width="576"/>
  <unicode hex="0432"/>
  <outline>
    <contour>
      <point x="343" y="105" type="line"/>
      <point x="387" y="107"/>
      <point x="387" y="147" type="qcurve" smooth="yes"/>
      <point x="387" y="178" type="line"/>
      <point x="384" y="221"/>
      <point x="343" y="221" type="qcurve" smooth="yes"/>
      <point x="213" y="221" type="line"/>
      <point x="213" y="105" type="line"/>
    </contour>
    <contour>
      <point x="325" y="309" type="line"/>
      <point x="367" y="311"/>
      <point x="367" y="351" type="qcurve" smooth="yes"/>
      <point x="367" y="378" type="line"/>
      <point x="366" y="420"/>
      <point x="325" y="420" type="qcurve" smooth="yes"/>
      <point x="213" y="420" type="line"/>
      <point x="213" y="309" type="line"/>
    </contour>
    <contour>
      <point x="69" y="0" type="line"/>
      <point x="69" y="525" type="line"/>
      <point x="368" y="525" type="line" smooth="yes"/>
      <point x="440" y="525"/>
      <point x="516" y="453"/>
      <point x="516" y="393" type="qcurve" smooth="yes"/>
      <point x="516" y="291"/>
      <point x="405" y="278" type="qcurve"/>
      <point x="405" y="273" type="line"/>
      <point x="536" y="262"/>
      <point x="536" y="152" type="qcurve" smooth="yes"/>
      <point x="536" y="82"/>
      <point x="448" y="0"/>
      <point x="370" y="0" type="qcurve" smooth="yes"/>
    </contour>
  </outline>
</glyph>
<glyph name="yucyr" format="2">
  <advance width="822"/>
  <unicode hex="044E"/>
  <outline>
    <contour>
      <point x="545" y="105" type="qcurve" smooth="yes"/>
      <point x="632" y="105"/>
      <point x="632" y="209" type="qcurve" smooth="yes"/>
      <point x="632" y="321" type="line" smooth="yes"/>
      <point x="632" y="420"/>
      <point x="545" y="420" type="qcurve" smooth="yes"/>
      <point x="458" y="420"/>
      <point x="458" y="316" type="qcurve" smooth="yes"/>
      <point x="458" y="207" type="line" smooth="yes"/>
      <point x="458" y="105"/>
    </contour>
    <contour>
      <point x="545" y="-12" type="qcurve" smooth="yes"/>
      <point x="442" y="-12"/>
      <point x="320" y="104"/>
      <point x="307" y="209" type="qcurve"/>
      <point x="217" y="209" type="line"/>
      <point x="217" y="0" type="line"/>
      <point x="69" y="0" type="line"/>
      <point x="69" y="525" type="line"/>
      <point x="217" y="525" type="line"/>
      <point x="217" y="324" type="line"/>
      <point x="308" y="324" type="line"/>
      <point x="323" y="425"/>
      <point x="443" y="537"/>
      <point x="545" y="537" type="qcurve" smooth="yes"/>
      <point x="661" y="537"/>
      <point x="786" y="389"/>
      <point x="786" y="263" type="qcurve" smooth="yes"/>
      <point x="786" y="137"/>
      <point x="661" y="-12"/>
    </contour>
  </outline>
</glyph>
<glyph name="eukrcyr" format="2">
  <advance width="535"/>
  <unicode hex="0454"/>
  <outline>
    <contour>
      <point x="291" y="-12" type="qcurve" smooth="yes"/>
      <point x="165" y="-12"/>
      <point x="36" y="137"/>
      <point x="36" y="263" type="qcurve" smooth="yes"/>
      <point x="36" y="389"/>
      <point x="164" y="537"/>
      <point x="288" y="537" type="qcurve" smooth="yes"/>
      <point x="378" y="537"/>
      <point x="482" y="470"/>
      <point x="509" y="413" type="qcurve"/>
      <point x="391" y="352" type="line"/>
      <point x="381" y="385"/>
      <point x="336" y="421"/>
      <point x="288" y="421" type="qcurve" smooth="yes"/>
      <point x="239" y="421"/>
      <point x="191" y="365"/>
      <point x="190" y="316" type="qcurve"/>
      <point x="354" y="316" type="line"/>
      <point x="354" y="218" type="line"/>
      <point x="190" y="218" type="line"/>
      <point x="190" y="163"/>
      <point x="238" y="104"/>
      <point x="291" y="104" type="qcurve" smooth="yes"/>
      <point x="334" y="104"/>
      <point x="384" y="140"/>
      <point x="399" y="179" type="qcurve"/>
      <point x="512" y="120" type="line"/>
      <point x="476" y="50"/>
      <point x="375" y="-12"/>
    </contour>
  </outline>
</glyph>
<glyph name="iukrcyr" format="2">
  <advance width="286"/>
  <unicode hex="0456"/>
  <outline>
    <contour>
      <point x="69" y="0" type="line"/>
      <point x="69" y="525" type="line"/>
      <point x="217" y="525" type="line"/>
      <point x="217" y="0" type="line"/>
    </contour>
    <contour>
      <point x="143" y="581" type="qcurve" smooth="yes"/>
      <point x="98" y="581"/>
      <point x="57" y="622"/>
      <point x="57" y="654" type="qcurve" smooth="yes"/>
      <point x="57" y="676" type="line" smooth="yes"/>
      <point x="57" y="708"/>
      <point x="98" y="749"/>
      <point x="143" y="749" type="qcurve" smooth="yes"/>
      <point x="188" y="749"/>
      <point x="229" y="708"/>
      <point x="229" y="676" type="qcurve" smooth="yes"/>
      <point x="229" y="654" type="line" smooth="yes"/>
      <point x="229" y="622"/>
      <point x="188" y="581"/>
    </contour>
  </outline>
</glyph>
<glyph name="kabashkcyr" format="2">
  <advance width="669"/>
  <unicode hex="04A1"/>
  <outline>
    <contour>
      <point x="562" y="0" type="line" smooth="yes"/>
      <point x="520" y="0"/>
      <point x="467" y="34"/>
      <point x="445" y="75" type="qcurve" smooth="yes"/>
      <point x="371" y="209" type="line"/>
      <point x="295" y="209" type="line"/>
      <point x="295" y="0" type="line"/>
      <point x="147" y="0" type="line"/>
      <point x="147" y="410" type="line"/>
      <point x="20" y="410" type="line"/>
      <point x="20" y="525" type="line"/>
      <point x="295" y="525" type="line"/>
      <point x="295" y="324" type="line"/>
      <point x="371" y="324" type="line"/>
      <point x="440" y="452" type="line"/>
      <point x="460" y="491"/>
      <point x="514" y="525"/>
      <point x="556" y="525" type="qcurve" smooth="yes"/>
      <point x="617" y="525" type="line"/>
      <point x="617" y="410" type="line"/>
      <point x="564" y="410" type="line"/>
      <point x="519" y="326" type="line" smooth="yes"/>
      <point x="505" y="300"/>
      <point x="478" y="278"/>
      <point x="460" y="273" type="qcurve"/>
      <point x="460" y="268" type="line"/>
      <point x="494" y="263"/>
      <point x="518" y="222" type="qcurve"/>
      <point x="577" y="115" type="line"/>
      <point x="631" y="115" type="line"/>
      <point x="631" y="0" type="line"/>
    </contour>
  </outline>
</glyph>
<glyph name="palochkacyr" format="2">
  <advance width="286"/>
  <unicode hex="04CF"/>
  <outline>
    <contour>
      <point x="69" y="0" type="line"/>
      <point x="69" y="740" type="line"/>
      <point x="217" y="740" type="line"/>
      <point x="217" y="0" type="line"/>
    </contour>
  </outline>
</glyph>
<glyph name="Zhedieresiscyr" format="2">
  <advance width="1006"/>
  <unicode hex="04DC"/>
  <outline>
    <contour>
      <point x="886" y="0" type="line" smooth="yes"/>
      <point x="844" y="0"/>
      <point x="787" y="38"/>
      <point x="764" y="87" type="qcurve" smooth="yes"/>
      <point x="670" y="286" type="line"/>
      <point x="579" y="286" type="line"/>
      <point x="579" y="0" type="line"/>
      <point x="427" y="0" type="line"/>
      <point x="427" y="286" type="line"/>
      <point x="336" y="286" type="line"/>
      <point x="242" y="87" type="line" smooth="yes"/>
      <point x="219" y="38"/>
      <point x="162" y="0"/>
      <point x="120" y="0" type="qcurve" smooth="yes"/>
      <point x="40" y="0" type="line"/>
      <point x="40" y="135" type="line"/>
      <point x="102" y="135" type="line"/>
      <point x="179" y="298" type="line" smooth="yes"/>
      <point x="203" y="350"/>
      <point x="254" y="357" type="qcurve"/>
      <point x="254" y="363" type="line"/>
      <point x="209" y="373"/>
      <point x="181" y="429" type="qcurve" smooth="yes"/>
      <point x="116" y="563" type="line"/>
      <point x="54" y="563" type="line"/>
      <point x="54" y="698" type="line"/>
      <point x="117" y="698" type="line" smooth="yes"/>
      <point x="207" y="698"/>
      <point x="242" y="614" type="qcurve"/>
      <point x="336" y="420" type="line"/>
      <point x="427" y="420" type="line"/>
      <point x="427" y="698" type="line"/>
      <point x="579" y="698" type="line"/>
      <point x="579" y="420" type="line"/>
      <point x="670" y="420" type="line"/>
      <point x="764" y="614" type="line"/>
      <point x="799" y="698"/>
      <point x="889" y="698" type="qcurve" smooth="yes"/>
      <point x="951" y="698" type="line"/>
      <point x="951" y="563" type="line"/>
      <point x="889" y="563" type="line"/>
      <point x="825" y="429" type="line" smooth="yes"/>
      <point x="798" y="373"/>
      <point x="752" y="363" type="qcurve"/>
      <point x="752" y="357" type="line"/>
      <point x="803" y="350"/>
      <point x="827" y="298" type="qcurve" smooth="yes"/>
      <point x="904" y="135" type="line"/>
      <point x="966" y="135" type="line"/>
      <point x="966" y="0" type="line"/>
    </contour>
    <contour>
      <point x="393" y="761" type="qcurve" smooth="yes"/>
      <point x="313" y="761"/>
      <point x="313" y="824" type="qcurve" smooth="yes"/>
      <point x="313" y="849" type="line" smooth="yes"/>
      <point x="313" y="912"/>
      <point x="393" y="912" type="qcurve" smooth="yes"/>
      <point x="473" y="912"/>
      <point x="473" y="849" type="qcurve" smooth="yes"/>
      <point x="473" y="824" type="line" smooth="yes"/>
      <point x="473" y="761"/>
    </contour>
    <contour>
      <point x="613" y="761" type="qcurve" smooth="yes"/>
      <point x="533" y="761"/>
      <point x="533" y="824" type="qcurve" smooth="yes"/>
      <point x="533" y="849" type="line" smooth="yes"/>
      <point x="533" y="912"/>
      <point x="613" y="912" type="qcurve" smooth="yes"/>
      <point x="693" y="912"/>
      <point x="693" y="849" type="qcurve" smooth="yes"/>
      <point x="693" y="824" type="line" smooth="yes"/>
      <point x="693" y="761"/>
    </contour>
  </outline>
</glyph>
<glyph name="Ahoi" format="2">
  <advance width="685"/>
  <unicode hex="1EA2"/>
  <outline>
    <contour>
      <point x="342" y="560" type="line"/>
      <point x="337" y="560" type="line"/>
      <point x="260" y="295" type="line"/>
      <point x="420" y="295" type="line"/>
    </contour>
    <contour>
      <point x="507" y="0" type="line"/>
      <point x="457" y="166" type="line"/>
      <point x="224" y="166" type="line"/>
      <point x="174" y="0" type="line"/>
      <point x="20" y="0" type="line"/>
      <point x="250" y="698" type="line"/>
      <point x="438" y="698" type="line"/>
      <point x="665" y="0" type="line"/>
    </contour>
    <contour>
      <point x="300" y="765" type="line"/>
      <point x="341" y="857" type="line"/>
      <point x="219" y="857" type="line"/>
      <point x="219" y="963" type="line"/>
      <point x="362" y="963" type="line" smooth="yes"/>
      <point x="460" y="963"/>
      <point x="460" y="890" type="qcurve" smooth="yes"/>
      <point x="460" y="832"/>
      <point x="403" y="764" type="qcurve" smooth="yes"/>
      <point x="375" y="730" type="line"/>
    </contour>
  </outline>
</glyph>
<glyph name="abrevedotbelow" format="2">
  <advance width="553"/>
  <unicode hex="1EB7"/>
  <outline>
    <contour>
      <point x="252" y="91" type="qcurve" smooth="yes"/>
      <point x="289" y="91"/>
      <point x="342" y="123"/>
      <point x="342" y="159" type="qcurve" smooth="yes"/>
      <point x="342" y="221" type="line"/>
      <point x="270" y="221" type="line" smooth="yes"/>
      <point x="183" y="221"/>
      <point x="183" y="162" type="qcurve" smooth="yes"/>
      <point x="183" y="147" type="line" smooth="yes"/>
      <point x="183" y="91"/>
    </contour>
    <contour>
      <point x="269" y="-204" type="qcurve" smooth="yes"/>
      <point x="188" y="-204"/>
      <point x="188" y="-141" type="qcurve" smooth="yes"/>
      <point x="188" y="-115" type="line" smooth="yes"/>
      <point x="188" y="-52"/>
      <point x="269" y="-52" type="qcurve" smooth="yes"/>
      <point x="350" y="-52"/>
      <point x="350" y="-115" type="qcurve" smooth="yes"/>
      <point x="350" y="-141" type="line" smooth="yes"/>
      <point x="350" y="-204"/>
    </contour>
    <contour>
      <point x="269" y="579" type="qcurve" smooth="yes"/>
      <point x="189" y="579"/>
      <point x="139" y="637" type="qcurve"/>
      <point x="96" y="691"/>
      <point x="79" y="749" type="qcurve"/>
      <point x="160" y="791" type="line"/>
      <point x="180" y="758" type="line" smooth="yes"/>
      <point x="201" y="722"/>
      <point x="243" y="682"/>
      <point x="269" y="682" type="qcurve" smooth="yes"/>
      <point x="295" y="682"/>
      <point x="338" y="722"/>
      <point x="359" y="758" type="qcurve" smooth="yes"/>
      <point x="379" y="791" type="line"/>
      <point x="459" y="749" type="line"/>
      <point x="442" y="691"/>
      <point x="397" y="637" type="qcurve"/>
      <point x="344" y="579"/>
    </contour>
    <contour>
      <point x="197" y="-12" type="qcurve" smooth="yes"/>
      <point x="118" y="-12"/>
      <point x="34" y="72"/>
      <point x="34" y="141" type="qcurve" smooth="yes"/>
      <point x="34" y="224"/>
      <point x="155" y="305"/>
      <point x="259" y="305" type="qcurve" smooth="yes"/>
      <point x="342" y="305" type="line"/>
      <point x="342" y="338" type="line" smooth="yes"/>
      <point x="342" y="421"/>
      <point x="255" y="421" type="qcurve" smooth="yes"/>
      <point x="211" y="421"/>
      <point x="159" y="384"/>
      <point x="142" y="359" type="qcurve"/>
      <point x="54" y="437" type="line"/>
      <point x="85" y="485"/>
      <point x="183" y="537"/>
      <point x="266" y="537" type="qcurve" smooth="yes"/>
      <point x="490" y="537"/>
      <point x="490" y="345" type="qcurve" smooth="yes"/>
      <point x="490" y="0" type="line"/>
      <point x="357" y="0" type="line"/>
      <point x="357" y="92" type="line"/>
      <point x="351" y="92" type="line"/>
      <point x="338" y="41"/>
      <point x="257" y="-12"/>
    </contour>
  </outline>
</glyph>
<glyph name="edotbelow" format="2">
  <advance width="562"/>
  <unicode hex="1EB9"/>
  <outline>
    <contour>
      <point x="373" y="321" type="line" smooth="yes"/>
      <point x="373" y="369"/>
      <point x="330" y="428"/>
      <point x="285" y="428" type="qcurve" smooth="yes"/>
      <point x="240" y="428"/>
      <point x="189" y="369"/>
      <point x="189" y="320" type="qcurve" smooth="yes"/>
      <point x="189" y="312" type="line"/>
      <point x="373" y="312" type="line"/>
    </contour>
    <contour>
      <point x="283" y="-204" type="qcurve" smooth="yes"/>
      <point x="202" y="-204"/>
      <point x="202" y="-141" type="qcurve" smooth="yes"/>
      <point x="202" y="-115" type="line" smooth="yes"/>
      <point x="202" y="-52"/>
      <point x="283" y="-52" type="qcurve" smooth="yes"/>
      <point x="364" y="-52"/>
      <point x="364" y="-115" type="qcurve" smooth="yes"/>
      <point x="364" y="-141" type="line" smooth="yes"/>
      <point x="364" y="-204"/>
    </contour>
    <contour>
      <point x="288" y="-12" type="qcurve" smooth="yes"/>
      <point x="168" y="-12"/>
      <point x="36" y="137"/>
      <point x="36" y="263" type="qcurve" smooth="yes"/>
      <point x="36" y="388"/>
      <point x="164" y="537"/>
      <point x="282" y="537" type="qcurve" smooth="yes"/>
      <point x="405" y="537"/>
      <point x="470" y="456" type="qcurve" smooth="yes"/>
      <point x="526" y="384"/>
      <point x="526" y="269" type="qcurve" smooth="yes"/>
      <point x="526" y="225" type="line"/>
      <point x="189" y="225" type="line"/>
      <point x="189" y="217" type="line" smooth="yes"/>
      <point x="189" y="165"/>
      <point x="245" y="104"/>
      <point x="305" y="104" type="qcurve" smooth="yes"/>
      <point x="351" y="104"/>
      <point x="410" y="140"/>
      <point x="434" y="167" type="qcurve"/>
      <point x="508" y="75" type="line"/>
      <point x="432" y="-12"/>
    </contour>
  </outline>
</glyph>
<glyph name="Ecircumflextilde" format="2">
  <advance width="607"/>
  <unicode hex="1EC4"/>
  <outline>
    <contour>
      <point x="77" y="0" type="line"/>
      <point x="77" y="698" type="line"/>
      <point x="552" y="698" type="line"/>
      <point x="552" y="563" type="line"/>
      <point x="229" y="563" type="line"/>
      <point x="229" y="420" type="line"/>
      <point x="506" y="420" type="line"/>
      <point x="506" y="286" type="line"/>
      <point x="229" y="286" type="line"/>
      <point x="229" y="135" type="line"/>
      <point x="552" y="135" type="line"/>
      <point x="552" y="0" type="line"/>
    </contour>
    <contour>
      <point x="390" y="958" type="qcurve" smooth="yes"/>
      <point x="367" y="958"/>
      <point x="349" y="964" type="qcurve"/>
      <point x="307" y="980" type="line"/>
      <point x="288" y="989"/>
      <point x="254" y="1000"/>
      <point x="235" y="1000" type="qcurve" smooth="yes"/>
      <point x="218" y="1000"/>
      <point x="191" y="988"/>
      <point x="176" y="975" type="qcurve"/>
      <point x="126" y="1039" type="line"/>
      <point x="167" y="1103"/>
      <point x="240" y="1103" type="qcurve" smooth="yes"/>
      <point x="263" y="1103"/>
      <point x="281" y="1097" type="qcurve"/>
      <point x="323" y="1081" type="line"/>
      <point x="342" y="1072"/>
      <point x="376" y="1061"/>
      <point x="395" y="1061" type="qcurve" smooth="yes"/>
      <point x="412" y="1061"/>
      <point x="439" y="1073"/>
      <point x="454" y="1086" type="qcurve"/>
      <point x="504" y="1022" type="line"/>
      <point x="463" y="958"/>
    </contour>
    <contour>
      <point x="315" y="826" type="line"/>
      <point x="191" y="731" type="line"/>
      <point x="125" y="795" type="line"/>
      <point x="267" y="929" type="line"/>
      <point x="363" y="929" type="line"/>
      <point x="505" y="795" type="line"/>
      <point x="439" y="731" type="line"/>
    </contour>
  </outline>
</glyph>
<glyph name="ocircumflexhoi" format="2">
  <advance width="564"/>
  <unicode hex="1ED5"/>
  <outline>
    <contour>
      <point x="282" y="105" type="qcurve"/>
      <point x="374" y="109"/>
      <point x="374" y="209" type="qcurve" smooth="yes"/>
      <point x="374" y="316" type="line"/>
      <point x="371" y="420"/>
      <point x="282" y="420" type="qcurve"/>
      <point x="190" y="417"/>
      <point x="190" y="316" type="qcurve" smooth="yes"/>
      <point x="190" y="209" type="line"/>
      <point x="194" y="105"/>
    </contour>
    <contour>
      <point x="282" y="-12" type="qcurve" smooth="yes"/>
      <point x="167" y="-12"/>
      <point x="36" y="137"/>
      <point x="36" y="263" type="qcurve" smooth="yes"/>
      <point x="36" y="389"/>
      <point x="167" y="537"/>
      <point x="282" y="537" type="qcurve" smooth="yes"/>
      <point x="398" y="537"/>
      <point x="528" y="389"/>
      <point x="528" y="263" type="qcurve" smooth="yes"/>
      <point x="528" y="137"/>
      <point x="398" y="-12"/>
    </contour>
    <contour>
      <point x="395" y="754" type="line"/>
      <point x="438" y="851" type="line"/>
      <point x="319" y="851" type="line"/>
      <point x="319" y="952" type="line"/>
      <point x="453" y="952" type="line" smooth="yes"/>
      <point x="509" y="952"/>
      <point x="551" y="909"/>
      <point x="551" y="880" type="qcurve" smooth="yes"/>
      <point x="551" y="828"/>
      <point x="488" y="753" type="qcurve" smooth="yes"/>
      <point x="461" y="720" type="line"/>
    </contour>
    <contour>
      <point x="281" y="674" type="line"/>
      <point x="157" y="570" type="line"/>
      <point x="89" y="634" type="line"/>
      <point x="234" y="781" type="line"/>
      <point x="328" y="781" type="line"/>
      <point x="473" y="634" type="line"/>
      <point x="405" y="570" type="line"/>
    </contour>
  </outline>
</glyph>
<glyph name="Udotbelow" format="2">
  <advance width="694"/>
  <unicode hex="1EE4"/>
  <outline>
    <contour>
      <point x="347" y="-204" type="qcurve" smooth="yes"/>
      <point x="266" y="-204"/>
      <point x="266" y="-141" type="qcurve" smooth="yes"/>
      <point x="266" y="-115" type="line" smooth="yes"/>
      <point x="266" y="-52"/>
      <point x="347" y="-52" type="qcurve" smooth="yes"/>
      <point x="428" y="-52"/>
      <point x="428" y="-115" type="qcurve" smooth="yes"/>
      <point x="428" y="-141" type="line" smooth="yes"/>
      <point x="428" y="-204"/>
    </contour>
    <contour>
      <point x="347" y="-12" type="qcurve" smooth="yes"/>
      <point x="197" y="-12"/>
      <point x="135" y="60" type="qcurve"/>
      <point x="73" y="128"/>
      <point x="73" y="286" type="qcurve" smooth="yes"/>
      <point x="73" y="698" type="line"/>
      <point x="221" y="698" type="line"/>
      <point x="221" y="270" type="line" smooth="yes"/>
      <point x="221" y="196"/>
      <point x="279" y="123"/>
      <point x="347" y="123" type="qcurve" smooth="yes"/>
      <point x="415" y="123"/>
      <point x="473" y="196"/>
      <point x="473" y="270" type="qcurve" smooth="yes"/>
      <point x="473" y="698" type="line"/>
      <point x="621" y="698" type="line"/>
      <point x="621" y="286" type="line" smooth="yes"/>
      <point x="621" y="128"/>
      <point x="559" y="60" type="qcurve"/>
      <point x="497" y="-12"/>
    </contour>
  </outline>
</glyph>
<glyph name="three.inferior" format="2">
  <advance width="345"/>
  <unicode hex="2083"/>
  <outline>
    <contour>
      <point x="159" y="-6" type="qcurve" smooth="yes"/>
      <point x="94" y="-6"/>
      <point x="23" y="37"/>
      <point x="4" y="69" type="qcurve"/>
      <point x="80" y="127" type="line"/>
      <point x="105" y="73"/>
      <point x="159" y="73" type="qcurve" smooth="yes"/>
      <point x="164" y="73" type="line" smooth="yes"/>
      <point x="209" y="73"/>
      <point x="209" y="107" type="qcurve" smooth="yes"/>
      <point x="209" y="147"/>
      <point x="151" y="147" type="qcurve" smooth="yes"/>
      <point x="117" y="147" type="line"/>
      <point x="117" y="229" type="line"/>
      <point x="155" y="229" type="line" smooth="yes"/>
      <point x="202" y="229"/>
      <point x="202" y="264" type="qcurve"/>
      <point x="201" y="296"/>
      <point x="157" y="296" type="qcurve" smooth="yes"/>
      <point x="115" y="296"/>
      <point x="77" y="253" type="qcurve"/>
      <point x="15" y="312" type="line"/>
      <point x="40" y="343"/>
      <point x="107" y="375"/>
      <point x="160" y="375" type="qcurve" smooth="yes"/>
      <point x="231" y="375"/>
      <point x="310" y="319"/>
      <point x="310" y="274" type="qcurve" smooth="yes"/>
      <point x="310" y="239"/>
      <point x="266" y="197"/>
      <point x="234" y="193" type="qcurve"/>
      <point x="234" y="189" type="line"/>
      <point x="316" y="175"/>
      <point x="316" y="104" type="qcurve" smooth="yes"/>
      <point x="316" y="53"/>
      <point x="229" y="-6"/>
    </contour>
  </outline>
</glyph>
<glyph name="lira" format="2">
  <advance width="582"/>
  <unicode hex="20A4"/>
  <outline>
    <contour>
      <point x="66" y="0" type="line"/>
      <point x="66" y="131" type="line"/>
      <point x="129" y="163"/>
      <point x="146" y="227" type="qcurve"/>
      <point x="34" y="227" type="line"/>
      <point x="34" y="317" type="line"/>
      <point x="138" y="317" type="line"/>
      <point x="135" y="330"/>
      <point x="130" y="343" type="qcurve"/>
      <point x="111" y="385" type="line"/>
      <point x="34" y="385" type="line"/>
      <point x="34" y="475" type="line"/>
      <point x="84" y="475" type="line"/>
      <point x="83" y="481" type="line"/>
      <point x="82" y="492"/>
      <point x="82" y="505" type="qcurve" smooth="yes"/>
      <point x="82" y="597"/>
      <point x="218" y="710"/>
      <point x="332" y="710" type="qcurve" smooth="yes"/>
      <point x="489" y="710"/>
      <point x="568" y="589" type="qcurve"/>
      <point x="458" y="516" type="line"/>
      <point x="408" y="583"/>
      <point x="336" y="583" type="qcurve" smooth="yes"/>
      <point x="287" y="583"/>
      <point x="235" y="528"/>
      <point x="235" y="475" type="qcurve"/>
      <point x="425" y="475" type="line"/>
      <point x="425" y="385" type="line"/>
      <point x="260" y="385" type="line"/>
      <point x="277" y="352"/>
      <point x="288" y="317" type="qcurve"/>
      <point x="425" y="317" type="line"/>
      <point x="425" y="227" type="line"/>
      <point x="293" y="227" type="line"/>
      <point x="284" y="191"/>
      <point x="242" y="143"/>
      <point x="220" y="132" type="qcurve"/>
      <point x="220" y="123" type="line"/>
      <point x="554" y="123" type="line"/>
      <point x="554" y="0" type="line"/>
    </contour>
  </outline>
</glyph>
<glyph name="estimated" format="2">
  <advance width="714"/>
  <unicode hex="212E"/>
  <outline>
    <contour>
      <point x="500" y="613" type="line"/>
      <point x="435" y="652"/>
      <point x="357" y="652" type="qcurve" smooth="yes"/>
      <point x="279" y="652"/>
      <point x="214" y="613" type="qcurve"/>
      <point x="214" y="407" type="line"/>
      <point x="500" y="407" type="line"/>
    </contour>
    <contour>
      <point x="357" y="-12" type="qcurve" smooth="yes"/>
      <point x="215" y="-12"/>
      <point x="123" y="86" type="qcurve" smooth="yes"/>
      <point x="30" y="183"/>
      <point x="30" y="349" type="qcurve" smooth="yes"/>
      <point x="30" y="513"/>
      <point x="215" y="710"/>
      <point x="357" y="710" type="qcurve" smooth="yes"/>
      <point x="497" y="710"/>
      <point x="591" y="612" type="qcurve" smooth="yes"/>
      <point x="684" y="513"/>
      <point x="684" y="349" type="qcurve"/>
      <point x="214" y="349" type="line"/>
      <point x="214" y="88" type="line"/>
      <point x="276" y="49"/>
      <point x="357" y="49" type="qcurve" smooth="yes"/>
      <point x="523" y="49"/>
      <point x="601" y="198" type="qcurve"/>
      <point x="656" y="166" type="line"/>
      <point x="616" y="88"/>
      <point x="464" y="-12"/>
    </contour>
  </outline>
</glyph>
<glyph name="arrowanticlockwisesemicircle" format="2">
  <advance width="900"/>
  <unicode hex="21B6"/>
  <outline>
    <contour>
      <point x="26" y="276" type="line"/>
      <point x="106" y="356" type="line"/>
      <point x="166" y="296" type="line"/>
      <point x="204" y="252" type="line"/>
      <point x="208" y="253" type="line"/>
      <point x="204" y="333"/>
      <point x="204" y="346" type="qcurve" smooth="yes"/>
      <point x="204" y="414"/>
      <point x="225" y="475" type="qcurve" smooth="yes"/>
      <point x="269" y="603"/>
      <point x="392" y="656" type="qcurve" smooth="yes"/>
      <point x="455" y="683"/>
      <point x="539" y="683" type="qcurve" smooth="yes"/>
      <point x="623" y="683"/>
      <point x="748" y="629"/>
      <point x="832" y="537"/>
      <point x="874" y="414"/>
      <point x="874" y="346" type="qcurve"/>
      <point x="752" y="346" type="line"/>
      <point x="752" y="439"/>
      <point x="651" y="562"/>
      <point x="539" y="569" type="qcurve"/>
      <point x="433" y="569"/>
      <point x="376" y="501" type="qcurve" smooth="yes"/>
      <point x="326" y="441"/>
      <point x="326" y="346" type="qcurve" smooth="yes"/>
      <point x="326" y="333"/>
      <point x="322" y="253" type="qcurve"/>
      <point x="326" y="252" type="line"/>
      <point x="364" y="296" type="line"/>
      <point x="424" y="356" type="line"/>
      <point x="504" y="276" type="line"/>
      <point x="265" y="37" type="line"/>
    </contour>
  </outline>
</glyph>
<glyph name="rightarrowoverleftarrow" format="2">
  <advance width="900"/>
  <unicode hex="21C4"/>
  <outline>
    <contour>
      <point x="95" y="186" type="line"/>
      <point x="334" y="425" type="line"/>
      <point x="414" y="345" type="line"/>
      <point x="354" y="285" type="line"/>
      <point x="310" y="247" type="line"/>
      <point x="311" y="243" type="line"/>
      <point x="391" y="247" type="line"/>
      <point x="805" y="247" type="line"/>
      <point x="805" y="125" type="line"/>
      <point x="391" y="125" type="line"/>
      <point x="311" y="129" type="line"/>
      <point x="310" y="125" type="line"/>
      <point x="354" y="87" type="line"/>
      <point x="414" y="27" type="line"/>
      <point x="334" y="-53" type="line"/>
    </contour>
    <contour>
      <point x="486" y="354" type="line"/>
      <point x="546" y="414" type="line"/>
      <point x="590" y="452" type="line"/>
      <point x="589" y="456" type="line"/>
      <point x="509" y="452" type="line"/>
      <point x="95" y="452" type="line"/>
      <point x="95" y="574" type="line"/>
      <point x="509" y="574" type="line"/>
      <point x="589" y="570" type="line"/>
      <point x="590" y="574" type="line"/>
      <point x="546" y="612" type="line"/>
      <point x="486" y="672" type="line"/>
      <point x="566" y="752" type="line"/>
      <point x="805" y="513" type="line"/>
      <point x="566" y="274" type="line"/>
    </contour>
  </outline>
</glyph>
<glyph name="partialdiff" format="2">
  <advance width="587"/>
  <unicode hex="2202"/>
  <outline>
    <contour>
      <point x="293" y="98" type="qcurve"/>
      <point x="395" y="103"/>
      <point x="395" y="217" type="qcurve" smooth="yes"/>
      <point x="395" y="273" type="line" smooth="yes"/>
      <point x="395" y="330"/>
      <point x="341" y="392"/>
      <point x="293" y="392" type="qcurve"/>
      <point x="191" y="387"/>
      <point x="191" y="273" type="qcurve" smooth="yes"/>
      <point x="191" y="217" type="line" smooth="yes"/>
      <point x="191" y="160"/>
      <point x="245" y="98"/>
    </contour>
    <contour>
      <point x="295" y="-12" type="qcurve" smooth="yes"/>
      <point x="175" y="-12"/>
      <point x="38" y="131"/>
      <point x="38" y="255" type="qcurve" smooth="yes"/>
      <point x="38" y="368"/>
      <point x="143" y="504"/>
      <point x="233" y="504" type="qcurve" smooth="yes"/>
      <point x="336" y="504"/>
      <point x="387" y="406" type="qcurve"/>
      <point x="396" y="410" type="line"/>
      <point x="368" y="490"/>
      <point x="214" y="630"/>
      <point x="89" y="698" type="qcurve"/>
      <point x="306" y="698" type="line"/>
      <point x="402" y="641"/>
      <point x="473" y="538" type="qcurve"/>
      <point x="548" y="423"/>
      <point x="548" y="274" type="qcurve" smooth="yes"/>
      <point x="548" y="131"/>
      <point x="478" y="57" type="qcurve"/>
      <point x="408" y="-12"/>
    </contour>
  </outline>
</glyph>
<glyph name="ffi" format="2">
  <advance width="972"/>
  <unicode hex="FB03"/>
  <outline>
    <contour>
      <point x="829" y="581" type="qcurve" smooth="yes"/>
      <point x="784" y="581"/>
      <point x="743" y="622"/>
      <point x="743" y="654" type="qcurve" smooth="yes"/>
      <point x="743" y="676" type="line" smooth="yes"/>
      <point x="743" y="708"/>
      <point x="784" y="749"/>
      <point x="829" y="749" type="qcurve" smooth="yes"/>
      <point x="874" y="749"/>
      <point x="915" y="708"/>
      <point x="915" y="676" type="qcurve" smooth="yes"/>
      <point x="915" y="654" type="line" smooth="yes"/>
      <point x="915" y="622"/>
      <point x="874" y="581"/>
    </contour>
    <contour>
      <point x="95" y="0" type="line"/>
      <point x="95" y="410" type="line"/>
      <point x="21" y="410" type="line"/>
      <point x="21" y="525" type="line"/>
      <point x="95" y="525" type="line"/>
      <point x="95" y="587" type="line"/>
      <point x="98" y="740"/>
      <point x="252" y="740" type="qcurve" smooth="yes"/>
      <point x="348" y="740" type="line"/>
      <point x="348" y="625" type="line"/>
      <point x="243" y="625" type="line"/>
      <point x="243" y="525" type="line"/>
      <point x="420" y="525" type="line"/>
      <point x="420" y="587" type="line"/>
      <point x="423" y="740"/>
      <point x="577" y="740" type="qcurve" smooth="yes"/>
      <point x="673" y="740" type="line"/>
      <point x="673" y="625" type="line"/>
      <point x="568" y="625" type="line"/>
      <point x="568" y="525" type="line"/>
      <point x="903" y="525" type="line"/>
      <point x="903" y="0" type="line"/>
      <point x="755" y="0" type="line"/>
      <point x="755" y="410" type="line"/>
      <point x="568" y="410" type="line"/>
      <point x="568" y="0" type="line"/>
      <point x="420" y="0" type="line"/>
      <point x="420" y="410" type="line"/>
      <point x="243" y="410" type="line"/>
      <point x="243" y="0" type="line"/>
    </contour>
  </outline>
</glyph>
<glyph name="ffl" format="2">
  <advance width="989"/>
  <unicode hex="FB04"/>
  <outline>
    <contour>
      <point x="95" y="0" type="line"/>
      <point x="95" y="410" type="line"/>
      <point x="21" y="410" type="line"/>
      <point x="21" y="525" type="line"/>
      <point x="95" y="525" type="line"/>
      <point x="95" y="587" type="line"/>
      <point x="98" y="740"/>
      <point x="252" y="740" type="qcurve" smooth="yes"/>
      <point x="348" y="740" type="line"/>
      <point x="348" y="625" type="line"/>
      <point x="243" y="625" type="line"/>
      <point x="243" y="525" type="line"/>
      <point x="420" y="525" type="line"/>
      <point x="420" y="587" type="line"/>
      <point x="423" y="740"/>
      <point x="577" y="740" type="qcurve" smooth="yes"/>
      <point x="903" y="740" type="line"/>
      <point x="903" y="115" type="line"/>
      <point x="969" y="115" type="line"/>
      <point x="969" y="0" type="line"/>
      <point x="902" y="0" type="line" smooth="yes"/>
      <point x="755" y="0"/>
      <point x="755" y="144" type="qcurve" smooth="yes"/>
      <point x="755" y="625" type="line"/>
      <point x="568" y="625" type="line"/>
      <point x="568" y="525" type="line"/>
      <point x="673" y="525" type="line"/>
      <point x="673" y="410" type="line"/>
      <point x="568" y="410" type="line"/>
      <point x="568" y="0" type="line"/>
      <point x="420" y="0" type="line"/>
      <point x="420" y="410" type="line"/>
      <point x="243" y="410" type="line"/>
      <point x="243" y="0" type="line"/>
    </contour>
  </outline>
</glyph>
<glyph name="one.subs" format="2">
  <advance width="314"/>
  <outline>
    <contour>
      <point x="243" y="470" type="line"/>
      <point x="142" y="470" type="line"/>
      <point x="142" y="747" type="line"/>
      <point x="62" y="711" type="line"/>
      <point x="62" y="802" type="line"/>
      <point x="137" y="839" type="line"/>
      <point x="243" y="839" type="line"/>
    </contour>
  </outline>
</glyph>
<glyph name="one.sups" format="2">
  <advance width="314"/>
  <outline>
    <contour>
      <point x="243" y="-388" type="line"/>
      <point x="142" y="-388" type="line"/>
      <point x="142" y="-111" type="line"/>
      <point x="62" y="-147" type="line"/>
      <point x="62" y="-56" type="line"/>
      <point x="137" y="-19" type="line"/>
      <point x="243" y="-19" type="line"/>
    </contour>
  </outline>
</glyph>
<glyph name="three.subs" format="2">
  <advance width="345"/>
  <outline>
    <contour>
      <point x="159" y="464" type="qcurve" smooth="yes"/>
      <point x="94" y="464"/>
      <point x="23" y="507"/>
      <point x="4" y="539" type="qcurve"/>
      <point x="80" y="597" type="line"/>
      <point x="105" y="543"/>
      <point x="159" y="543" type="qcurve"/>
      <point x="209" y="547"/>
      <point x="209" y="585" type="qcurve" smooth="yes"/>
      <point x="209" y="617"/>
      <point x="148" y="617" type="qcurve" smooth="yes"/>
      <point x="117" y="617" type="line"/>
      <point x="117" y="699" type="line"/>
      <point x="151" y="699" type="line" smooth="yes"/>
      <point x="178" y="699"/>
      <point x="202" y="716"/>
      <point x="202" y="726" type="qcurve" smooth="yes"/>
      <point x="202" y="744"/>
      <point x="179" y="766"/>
      <point x="157" y="766" type="qcurve" smooth="yes"/>
      <point x="115" y="766"/>
      <point x="77" y="723" type="qcurve"/>
      <point x="15" y="782" type="line"/>
      <point x="40" y="813"/>
      <point x="107" y="845"/>
      <point x="160" y="845" type="qcurve" smooth="yes"/>
      <point x="231" y="845"/>
      <point x="310" y="789"/>
      <point x="310" y="744" type="qcurve" smooth="yes"/>
      <point x="310" y="709"/>
      <point x="266" y="667"/>
      <point x="234" y="663" type="qcurve"/>
      <point x="234" y="659" type="line"/>
      <point x="316" y="645"/>
      <point x="316" y="574" type="qcurve" smooth="yes"/>
      <point x="316" y="523"/>
      <point x="229" y="464"/>
    </contour>
  </outline>
</glyph>
<glyph name="two.sups" format="2">
  <advance width="347"/>
  <outline>
    <contour>
      <point x="33" y="-388" type="line"/>
      <point x="33" y="-300" type="line"/>
      <point x="142" y="-217" type="line" smooth="yes"/>
      <point x="179" y="-190"/>
      <point x="209" y="-156"/>
      <point x="209" y="-133" type="qcurve" smooth="yes"/>
      <point x="209" y="-99"/>
      <point x="166" y="-99" type="qcurve" smooth="yes"/>
      <point x="123" y="-99"/>
      <point x="111" y="-144" type="qcurve"/>
      <point x="22" y="-111" type="line"/>
      <point x="36" y="-68"/>
      <point x="113" y="-13"/>
      <point x="176" y="-13" type="qcurve" smooth="yes"/>
      <point x="244" y="-13"/>
      <point x="318" y="-77"/>
      <point x="318" y="-127" type="qcurve" smooth="yes"/>
      <point x="318" y="-174"/>
      <point x="250" y="-248"/>
      <point x="204" y="-272" type="qcurve"/>
      <point x="145" y="-305" type="line"/>
      <point x="322" y="-305" type="line"/>
      <point x="322" y="-388" type="line"/>
    </contour>
  </outline>
</glyph>
